<svg width="51" height="51" viewBox="0 0 51 51" fill="none" xmlns="http://www.w3.org/2000/svg">
<path d="M25.5 0.5625C11.7287 0.5625 0.5625 12.0182 0.5625 26.1346C0.5625 37.4344 7.70977 47.0086 17.618 50.393C17.7569 50.4232 17.8988 50.4381 18.041 50.4375C18.965 50.4375 19.3213 49.7584 19.3213 49.1684C19.3213 48.5561 19.299 46.9529 19.2879 44.8154C18.463 45.0088 17.6191 45.1096 16.7719 45.116C11.9736 45.116 10.8826 41.3865 10.8826 41.3865C9.74707 38.4363 8.11055 37.6459 8.11055 37.6459C5.93965 36.1207 8.09941 36.0762 8.26641 36.0762H8.27754C10.7824 36.2988 12.0961 38.7258 12.0961 38.7258C13.343 40.9078 15.0129 41.5201 16.5047 41.5201C17.4911 41.5004 18.4622 41.2728 19.3547 40.8521C19.5773 39.2045 20.223 38.0801 20.9355 37.4344C15.4025 36.7887 9.58008 34.5955 9.58008 24.7986C9.58008 22.0043 10.5486 19.7221 12.1406 17.9408C11.8846 17.2951 11.0273 14.69 12.3855 11.1721C12.5677 11.1285 12.755 11.1098 12.9422 11.1164C13.8439 11.1164 15.8813 11.4615 19.2434 13.7994C23.3286 12.6564 27.6491 12.6564 31.7344 13.7994C35.0965 11.4615 37.1338 11.1164 38.0355 11.1164C38.2228 11.1098 38.41 11.1285 38.5922 11.1721C39.9504 14.69 39.0932 17.2951 38.8371 17.9408C40.4291 19.7332 41.3977 22.0154 41.3977 24.7986C41.3977 34.6178 35.5641 36.7775 30.0088 37.4121C30.8994 38.2025 31.701 39.7611 31.701 42.1436C31.701 45.5613 31.6676 48.3223 31.6676 49.1572C31.6676 49.7584 32.0127 50.4375 32.9367 50.4375C33.0863 50.4382 33.2355 50.4232 33.382 50.393C43.3014 47.0086 50.4375 37.4232 50.4375 26.1346C50.4375 12.0182 39.2713 0.5625 25.5 0.5625Z" fill="white"/>
</svg>
