<svg width="45" height="45" viewBox="0 0 45 45" fill="none" xmlns="http://www.w3.org/2000/svg">
<path d="M42.9844 0.234375H2.01562C1.03037 0.234375 0.234375 1.03037 0.234375 2.01562V42.9844C0.234375 43.9696 1.03037 44.7656 2.01562 44.7656H42.9844C43.9696 44.7656 44.7656 43.9696 44.7656 42.9844V2.01562C44.7656 1.03037 43.9696 0.234375 42.9844 0.234375ZM13.4435 38.1806H6.83613V16.928H13.4435V38.1806ZM10.1426 14.0224C9.38514 14.0224 8.64471 13.7978 8.01492 13.3769C7.38513 12.9561 6.89427 12.358 6.60441 11.6582C6.31455 10.9584 6.23871 10.1884 6.38648 9.44554C6.53425 8.70265 6.89899 8.02027 7.43458 7.48468C7.97017 6.94909 8.65256 6.58434 9.39544 6.43657C10.1383 6.28881 10.9084 6.36465 11.6081 6.65451C12.3079 6.94437 12.906 7.43523 13.3268 8.06502C13.7477 8.6948 13.9723 9.43524 13.9723 10.1927C13.9667 12.3079 12.2522 14.0224 10.1426 14.0224ZM38.1806 38.1806H31.5788V27.8438C31.5788 25.3778 31.5343 22.2105 28.1443 22.2105C24.7099 22.2105 24.1811 24.8936 24.1811 27.6656V38.1806H17.5849V16.928H23.9194V19.8337H24.0085C24.888 18.1638 27.0422 16.3992 30.2596 16.3992C36.9504 16.3992 38.1806 20.8022 38.1806 26.5245V38.1806Z" fill="white"/>
</svg>
