<svg width="34" height="50" viewBox="0 0 34 50" fill="none" xmlns="http://www.w3.org/2000/svg">
<path d="M25.125 16.875C27.2799 16.875 29.3465 16.019 30.8702 14.4952C32.394 12.9715 33.25 10.9049 33.25 8.75C33.25 6.59512 32.394 4.52849 30.8702 3.00476C29.3465 1.48102 27.2799 0.625 25.125 0.625H8.875C6.72012 0.625 4.65349 1.48102 3.12976 3.00476C1.60603 4.52849 0.750004 6.59512 0.750004 8.75C0.750004 10.9049 1.60603 12.9715 3.12976 14.4952C4.65349 16.019 6.72012 16.875 8.875 16.875C6.72012 16.875 4.65349 17.731 3.12976 19.2548C1.60603 20.7785 0.750004 22.8451 0.750004 25C0.750004 27.1549 1.60603 29.2215 3.12976 30.7452C4.65349 32.269 6.72012 33.125 8.875 33.125C7.26803 33.125 5.69714 33.6015 4.361 34.4943C3.02485 35.3871 1.98344 36.656 1.36848 38.1407C0.75352 39.6253 0.592618 41.259 0.906123 42.8351C1.21963 44.4112 1.99346 45.8589 3.12976 46.9952C4.26606 48.1315 5.7138 48.9054 7.2899 49.2189C8.86599 49.5324 10.4997 49.3715 11.9843 48.7565C13.469 48.1416 14.7379 47.1002 15.6307 45.764C16.5235 44.4279 17 42.857 17 41.25V16.875H25.125Z" fill="white"/>
</svg>
